# Blender v2.74 (sub 0) OBJ File: ''
# www.blender.org

v 0.000206 0.235206 0.000000
v 0.000206 -0.000000 0.050000
v -0.146794 -0.106794 -0.000000
v 0.000206 -0.000000 -0.000000
v 0.000206 0.000000 -0.050000
v 0.147206 -0.106794 -0.000000

vn 0.435500 -0.187200 -0.880500
vn -0.587800 0.809000 0.000000
vn 0.587800 0.809000 0.000000
vn 0.435500 0.187200 -0.880500
vn 0.435500 -0.187200 0.880500
vn -1.000000 0.000000 0.000000
vn -0.435500 -0.187200 -0.880500

f 1//1 2//1 3//1
f 4//2 3//2 2//2
f 3//2 4//2 5//2
f 4//3 6//3 5//3
f 6//3 4//3 2//3
f 6//4 5//4 1//4
f 1//5 3//5 5//5
f 1//6 5//6 4//6
f 1//6 4//6 2//6
f 6//7 2//7 1//7
